<?xml version="1.0" encoding="UTF-8"?>
<svg id="Layer_2" xmlns="http://www.w3.org/2000/svg" viewBox="0 0 512 512">
  <rect width="512" height="512" rx="64.6" ry="64.6" fill="#006635"/>
  <g>
    <path d="M254.3,370.1l-56.1-130.8-56.1,130.8c0,2.9-4.3,5.7-7.2,8.6-2.9,1.4-5.7,2.9-10.1,2.9s-5.7,0-10.1-2.9c-2.9-1.4-4.3-4.3-5.7-7.2L35.8,154.5v-5.7c0-5.7,1.4-10.1,5.7-12.9,4.3-2.9,8.6-5.7,12.9-5.7s7.2,0,10.1,2.9c2.9,1.4,5.7,4.3,5.7,8.6l60.4,179.7,51.7-127.9c1.4-2.9,2.9-5.7,5.7-7.2s5.7-2.9,10.1-2.9,7.2,0,10.1,2.9c2.9,1.4,5.7,4.3,5.7,7.2l50.3,127.9-10.1,48.9Z" fill="#fff"/>
    <path d="M353.7,169.4l-23.6,70.9,84.6,28.1c4.1,1.4,7.7,4.1,10.9,8.2,1.8,3.6,1.8,8.2,0,13.6-1.8,5.5-2.7,8.2-7.7,9.6-3.6,1.8-8.2,1.8-13.6,0l-84.6-28.1-33.6,97.5c-1.4,4.1-2.7,8.2-9.5,10.5-6.8,2.3-8.6,3.2-14.1,1.4s-7.7-4.1-10.5-9.5-1.8-8.2,0-13.6l72.5-214.8c1.4-4.1,2.7-8.2,8.2-10.9,3.6-1.8,8.6-3.2,12.7-1.8l115.9,38.5c4.1,1.4,7.7,4.1,10.9,8.2,1.8,3.6,1.8,8.2,0,13.6s-2.7,8.2-7.7,9.6c-3.6,1.8-8.2,1.8-12.3.5l-99.6-33.1,1.4.5-.5,1.4Z"/>
  </g>
  <g id="hat">
    <path d="M385.4,82.6c2.7-2.5,4.3-6.7,4.8-10.4.5-4.5-.6-7.7-1-11.9,18.6-14.3,46.8-2,43.5,23-2.2,16.5-24.9,29.1-40.1,30.1-6.4.5-19.9-2.9-24.8-1.8l-15.6,3.6,10,1.5c10.7,3,22,6.2,33.3,4.4l4.8,20.8c-27.4.9-53.6,7-78.5,18.3l-5.8-25.1c9.9-11.9,24-26.2,39.2-30.6,5.7-1.6,10.5-1,16-2.2-35-22.7-62.9,45.1-94.1,38.2-16.1-3.6-22.8-26.8-13.2-39.5,10-13.3,28.1-10.7,42.4-8-11.4-38.1,40.9-64.2,67.5-37.6,2,2,7.7,9.3,8.2,11.5l3.6,15.6Z" fill="#fff"/>
    <path d="M411.8,153c-2.9-.8-22.3-1.8-26-1.6-13.8,1.1-26.7,3.6-39.7,8.2-10.1,3.6-19.5,9.1-29.5,12.6-.3-.7-1.5-1.6-1.6-2l-6.7-28.9c-20.9,13.8-49.5,10.5-56.7-16.3-7.6-28.7,19.1-47.3,45.3-40.9-1.5-45.2,58.5-64.2,87.1-31.4,26-17.7,61.6-.9,56.9,32.4-1.9,13.9-14.2,23.9-25.9,30-3.7,1.9-8.5,2.5-10.9,5.3l7.6,32.4ZM385.4,82.6l-3.6-15.6c-.5-2.2-6.3-9.5-8.2-11.5-26.6-26.6-78.9-.6-67.5,37.6-14.2-2.7-32.3-5.2-42.4,8-9.6,12.7-2.9,35.9,13.2,39.5,31.2,6.9,59.1-60.9,94.1-38.2-5.5,1.2-10.3.5-16,2.2-15.2,4.4-29.3,18.7-39.2,30.6l5.8,25.1c24.9-11.3,51.2-17.4,78.5-18.3l-4.8-20.8c-11.2,1.8-22.5-1.4-33.3-4.4l-10-1.5,15.6-3.6c4.9-1.1,18.4,2.2,24.8,1.8,15.2-1.1,37.9-13.6,40.1-30.1,3.3-24.9-24.8-37.3-43.5-23,.4,4.2,1.6,7.4,1,11.9-.4,3.6-2.1,7.8-4.8,10.4Z"/>
  </g>
</svg>
