<?xml version="1.0" encoding="UTF-8"?>
<svg xmlns="http://www.w3.org/2000/svg" viewBox="0 0 166.6 54.1">
  <path d="M29.4,17.2c3.9,0,7,3.1,7,7s-3.1,7-7,7-7-3.1-7-7,3.1-7,7-7M29.4,17c-4,0-7.2,3.2-7.2,7.2s3.2,7.2,7.2,7.2,7.2-3.2,7.2-7.2-3.2-7.2-7.2-7.2h0Z" fill="#155a00"/>
  <g class="world-foodies" fill="#155a00">
    <path d="M22.9,13.4c.3.2.4.5.4.9v.4l-5.2,15.1c0,.2-.2.4-.4.5s-.4.2-.7.2-.5,0-.7-.2c-.2-.1-.4-.3-.5-.6l-3.9-9.1-3.9,9.1c0,.2-.3.4-.5.6-.2.1-.4.2-.7.2s-.4,0-.7-.2c-.2-.1-.3-.3-.4-.5L.6,14.7v-.4c0-.4.1-.7.4-.9s.6-.4.9-.4.5,0,.7.2c.2.1.4.3.4.6l4.2,12.5,3.6-8.9c.1-.2.2-.4.4-.5s.4-.2.7-.2.5,0,.7.2c.2.1.4.3.4.5l3.5,8.9,4.2-12.5c0-.2.2-.4.4-.6.2-.1.5-.2.8-.2s.6.1.9.4c0,0,.1,0,.1,0Z"/>
    <path d="M46.2,17.5c.3.2.5.5.5.8s0,.7-.3.9c-.2.2-.5.3-.8.3s-.4,0-.7-.1-.6-.2-.8-.2c-.5,0-1,.2-1.5.5-.5.4-.9.9-1.2,1.5s-.5,1.3-.5,2.1v6c0,.3,0,.6-.3.9s-.5.4-.9.4-.6-.1-.8-.3c-.2-.2-.3-.5-.3-.9v-10.7c0-.3,0-.6.3-.9s.5-.4.8-.4.6.1.9.4.3.5.3.9v1.3c.4-.8.9-1.5,1.7-2s1.6-.8,2.5-.8.8.1,1.1.3h0Z"/>
    <path d="M51.1,30.3c-.2.2-.5.4-.8.4s-.6-.1-.8-.4-.3-.5-.3-.9V13.3c0-.3,0-.6.3-.9.2-.2.5-.4.8-.4s.6.1.8.4c.2.2.3.5.3.9v16.1c0,.3,0,.6-.3.9Z"/>
    <path d="M66.4,12.4c.2.2.3.5.3.9v16.1c0,.3,0,.6-.3.9-.2.2-.5.4-.9.4s-.6-.1-.8-.3c-.2-.2-.3-.5-.3-.9v-.7c-.4.6-1,1.1-1.8,1.5s-1.6.6-2.4.6-2.2-.3-3.1-.9c-.9-.6-1.6-1.4-2.2-2.4-.5-1-.8-2.2-.8-3.5s.3-2.5.8-3.5,1.2-1.9,2.2-2.4c.9-.6,1.9-.9,3-.9s1.7.2,2.5.5c.8.4,1.4.8,1.8,1.4v-5.9c0-.4,0-.6.3-.9.2-.2.5-.3.8-.3s.6.1.9.3h0ZM62.5,28.1c.6-.4,1.1-1,1.4-1.6.3-.7.5-1.5.5-2.4s-.2-1.6-.5-2.4c-.3-.7-.8-1.3-1.4-1.7-.6-.4-1.3-.6-2.1-.6s-1.5.2-2.1.6-1.1,1-1.4,1.7c-.3.7-.5,1.5-.5,2.4s.2,1.7.5,2.4c.3.7.8,1.2,1.4,1.6.6.4,1.3.6,2.1.6s1.5-.2,2.1-.6Z"/>
    <path d="M79.9,15.4v5.2h6.2c.3,0,.6.1.9.3.2.2.3.5.3.9s0,.6-.3.8c-.2.2-.5.3-.9.3h-6.2v6.5c0,.3,0,.6-.4.9s-.5.4-.9.4-.6-.1-.9-.4-.3-.5-.3-.9v-15.1c0-.3,0-.6.3-.9.2-.2.5-.4.8-.4h8.5c.3,0,.6.1.9.3.2.2.3.5.3.9s0,.6-.3.8c-.2.2-.5.3-.8.3h-7.3.1Z"/>
    <path d="M102.4,27.6c-.6,1-1.4,1.8-2.4,2.4s-2.1.9-3.3.9-2.3-.3-3.3-.9-1.8-1.4-2.4-2.4-.9-2.2-.9-3.5.3-2.5.9-3.5,1.4-1.9,2.4-2.5,2.1-.9,3.3-.9,2.3.3,3.3.9,1.8,1.4,2.4,2.5c.6,1,.9,2.2.9,3.5s-.3,2.5-.9,3.5ZM100.4,21.6c-.4-.7-.9-1.3-1.5-1.6s-1.3-.6-2.1-.6-1.5.2-2.1.6-1.2.9-1.5,1.6c-.4.7-.6,1.5-.6,2.4s.2,1.7.6,2.4.9,1.2,1.5,1.6,1.3.6,2.1.6,1.5-.2,2.1-.6,1.2-.9,1.5-1.6.6-1.5.6-2.4-.2-1.7-.6-2.4Z"/>
    <path d="M117.6,27.6c-.6,1-1.4,1.8-2.4,2.4s-2.1.9-3.3.9-2.3-.3-3.3-.9-1.8-1.4-2.4-2.4-.9-2.2-.9-3.5.3-2.5.9-3.5,1.4-1.9,2.4-2.5,2.1-.9,3.3-.9,2.3.3,3.3.9,1.8,1.4,2.4,2.5c.6,1,.9,2.2.9,3.5s-.3,2.5-.9,3.5ZM115.5,21.6c-.4-.7-.9-1.3-1.5-1.6s-1.3-.6-2.1-.6-1.5.2-2.1.6-1.2.9-1.5,1.6-.6,1.5-.6,2.4.2,1.7.6,2.4.9,1.2,1.5,1.6,1.3.6,2.1.6,1.5-.2,2.1-.6,1.2-.9,1.5-1.6.6-1.5.6-2.4-.2-1.7-.6-2.4Z"/>
    <path d="M132.7,12.4c.2.2.3.5.3.9v16.1c0,.3-.1.6-.3.9s-.5.4-.9.4-.6-.1-.9-.3c-.2-.2-.3-.5-.3-.9v-.7c-.4.6-1,1.1-1.8,1.5s-1.6.6-2.4.6-2.2-.3-3.1-.9-1.6-1.4-2.2-2.4c-.5-1-.8-2.2-.8-3.5s.3-2.5.8-3.5,1.2-1.9,2.2-2.4c.9-.6,1.9-.9,3-.9s1.7.2,2.5.5c.8.4,1.4.8,1.8,1.4v-5.9c0-.4.1-.6.3-.9.2-.2.5-.3.9-.3s.6.1.9.3h0ZM128.8,28.1c.6-.4,1.1-1,1.4-1.6.3-.7.5-1.5.5-2.4s-.2-1.6-.5-2.4c-.3-.7-.8-1.3-1.4-1.7-.6-.4-1.3-.6-2.1-.6s-1.5.2-2.1.6-1.1,1-1.4,1.7-.5,1.5-.5,2.4.2,1.7.5,2.4.8,1.2,1.4,1.6,1.3.6,2.1.6,1.5-.2,2.1-.6Z"/>
    <path d="M136.6,15.5c-.2-.2-.3-.4-.3-.8v-.4c0-.4.1-.7.3-.9s.6-.2,1-.2.8,0,1,.3c.2.2.3.5.3.8v.4c0,.4-.1.7-.3.9s-.6.2-1,.2-.8,0-1-.3h0ZM138.5,30.3c-.2.2-.5.4-.9.4s-.6-.1-.8-.4c-.2-.2-.3-.5-.3-.9v-10.8c0-.3.1-.6.3-.9s.5-.4.8-.4.6.1.9.4c.2.2.3.5.3.9v10.8c0,.3-.1.6-.3.9Z"/>
    <path d="M153.4,24.3c-.2.2-.5.3-.8.3h-8.8c.1,1.2.6,2.2,1.4,2.9s1.8,1.1,3,1.1,1.4-.1,1.9-.4.9-.5,1.3-.9c.2-.1.5-.2.7-.2s.5.1.7.3c.2.2.3.4.3.7s-.2.7-.5,1c-.5.5-1.1.9-1.9,1.2s-1.6.5-2.4.5c-1.4,0-2.5-.3-3.6-.9s-1.8-1.4-2.4-2.4-.8-2.2-.8-3.5.3-2.6.9-3.7,1.3-1.9,2.3-2.4,1.9-.9,3-.9,2.1.3,3,.8,1.7,1.3,2.2,2.3c.6,1,.9,2,.9,3.2s-.1.5-.4.8h0v.2h0ZM145.2,20.2c-.7.5-1.1,1.3-1.4,2.4h7.4v-.2c0-.9-.5-1.6-1.2-2.2s-1.5-.9-2.4-.9-1.7.3-2.4.8h0Z"/>
    <path d="M155.5,27.9c0-.3.2-.6.5-.9.2-.1.4-.2.6-.2s.6.1.8.4c.5.6,1,1,1.6,1.3s1.3.4,2.1.4,1.2-.2,1.7-.4.7-.7.7-1.3-.2-1-.7-1.3-1.2-.6-2.2-.8c-.9-.2-1.7-.5-2.3-.8s-1.1-.7-1.6-1.2-.6-1.2-.6-2.1.2-1.4.6-2,1-1,1.7-1.3,1.5-.5,2.3-.5,1.6.1,2.4.5c.8.3,1.4.8,1.9,1.4.2.2.3.5.3.7s-.1.5-.4.8c-.2.1-.4.2-.6.2s-.5-.1-.7-.3c-.4-.4-.8-.7-1.3-.9-.5-.2-1.1-.3-1.7-.3s-1.2.1-1.6.4-.7.7-.7,1.3.3,1,.8,1.3,1.2.6,2.3.8c.9.2,1.6.5,2.2.8s1.1.7,1.5,1.2.6,1.2.6,2.1-.2,1.5-.7,2c-.4.6-1,1-1.8,1.3-.7.3-1.5.5-2.3.5s-2-.2-2.9-.5-1.6-1-2.3-1.8c-.1-.2-.2-.5-.2-.7h0Z"/>
  </g>
  <g class="global-recipes-local-flavors" fill="#2e4954">
    <path d="M3.2,44.4c0-.8,0-1.6.4-2.3.5-1.3,1.3-2.4,2.5-3.2,1.1-.8,2.2-1.1,3.4-1.1s1.4.2,1.9.6.7,1,.7,1.7-.2.7-.7.7-.4,0-.5-.2-.2-.3-.2-.6-.1-.6-.4-.8-.6-.3-1-.3c-.8,0-1.7.3-2.5.9-.4.3-.8.7-1.1,1.1-.3.4-.6.9-.8,1.5s-.3,1.3-.3,2,.2,1.5.7,2,1.1.6,1.9.6,2.3-.3,3.6-1v-.6c0-.2,0,0-.1-.2h-1.2c-.1,0-.2-.2-.2-.4,0-.4.3-.6.9-.6s1.2,0,1.5.2c.3,0,.4.3.4.7v.5c-.4,2.2-.9,3.7-1.6,4.8s-1.5,1.5-2.5,1.5-.9,0-1.5-.3c-.3,0-.5-.3-.5-.6s0-.3.2-.5.3-.2.5-.2h.2c.5.2.9.3,1.3.3.6,0,1.1-.3,1.5-.8s.8-1.5,1.2-2.9c-.2.3-.7.5-1.4.8s-1.5.4-2.3.4-1.9-.3-2.6-.8c-.8-.6-1.2-1.5-1.2-2.8h-.2,0Z"/>
    <path d="M15.4,47.2c-.5,0-.8-.2-1.1-.6s-.4-.9-.4-1.5,0-.3,0-.5c.1-1.3.5-2.8,1.1-4.2s.6-1.3,1.1-1.7c.4-.5.9-.7,1.4-.7s.5,0,.7.3.2.4.2.7h0c0,1-.5,2-1.1,3.1s-1.4,1.9-2.2,2.5v.7c0,.8.2,1.1.7,1.1s1-.3,1.6-1h.5s.1.2.1.3,0,.2-.2.4c-.7.8-1.5,1.2-2.3,1.2h0v-.2h-.1ZM17.1,39.2c-.4,0-.8.5-1.2,1.5-.4,1-.7,2-.8,2.8.6-.6,1.1-1.3,1.5-2.1s.7-1.4.7-2,0-.3-.2-.3h0Z"/>
    <path d="M19.3,47.2c-.5,0-.9-.2-1.1-.5-.3-.3-.5-.8-.5-1.3,0-.8.2-1.4.8-2,.5-.6,1.1-.9,1.8-.9s.7,0,1,.4.4.6.4,1.1v.5c.6,0,1.2-.5,1.8-1.2h.3c.1,0,.1.2.1.3v.2c-.6.8-1.4,1.3-2.3,1.5-.3,1.2-1,1.9-2.1,1.9,0,0-.2,0-.2,0ZM19.5,46.4c.2,0,.5,0,.7-.4.2-.3.3-.5.4-.8-.4-.2-.5-.3-.5-.6s.1-.5.4-.7v-.3h-.2c-.4,0-.7.2-.9.6s-.4.8-.4,1.3.2.9.7.9h-.2Z"/>
    <path d="M27.7,39.2c0,.6-.3,1.2-.8,2s-.9,1.4-1.4,1.8h.1c.3-.3.6-.4,1-.4s.4,0,.6.4.3.6.3.9v.7c.3,0,.5-.2.9-.4.3-.2.5-.3.5-.3.2,0,.3,0,.3.4s0,.3-.2.4c-.4.4-.9.6-1.7.7-.4,1.2-1.1,1.8-2.2,1.8s-1-.2-1.4-.5-.5-.8-.5-1.4h0c0-1.1.2-2.2.5-3.3s.7-2,1.3-2.8c.5-.8,1.1-1.2,1.8-1.2s.5,0,.7.3.2.5.2.8v.2h0ZM26.5,39.2c-.3,0-.6.3-.9.9s-.6,1.2-.8,1.8-.3,1.2-.4,1.6c.2-.3.4-.6.6-.8,0,0,.2-.2.3-.4s.3-.3.3-.5.2-.2.3-.4c.4-.7.7-1.3.7-1.8h0c0-.3,0-.4-.2-.4,0,0,.1,0,.1,0ZM25.4,46.3c.5,0,.8-.3,1.1-1-.3,0-.4-.3-.4-.6s0-.3.2-.4c.1,0,.2-.2.4-.2h0c0-.2,0-.4-.1-.5h-.5c-.3,0-.7.2-1,.5s-.4.8-.4,1.2c0,.8.3,1.1.8,1.1h-.1Z"/>
    <path d="M29.2,45.7c0-.8.3-1.6.9-2.2s1.2-1,1.9-1,.6,0,.6.3h.3c.3,0,.4,0,.4.4h0l-.4,2.5v.2c0,.2,0,.3.2.3.3,0,.8-.3,1.3-.9h.2c.1,0,.2,0,.2.2v.6c-.2.3-.5.6-.8.8s-.7.4-1,.4-.6,0-.7-.2c-.2-.2-.3-.4-.3-.7h0c-.2.3-.4.6-.6.7-.3.2-.6.2-1,.2s-.7,0-.9-.4c-.2-.3-.3-.7-.3-1.1h0ZM30.8,46.3c.2,0,.5,0,.7-.4s.4-.6.5-.9l.4-1.6c-.5,0-1,.3-1.5.8-.4.5-.6,1-.6,1.5s.2.7.5.7h0Z"/>
    <path d="M36.9,47.2c-.5,0-.8-.2-1.1-.6s-.4-.9-.4-1.5,0-.3,0-.5c0-1.3.5-2.8,1.1-4.2s.7-1.3,1.1-1.7c.4-.5.9-.7,1.4-.7s.5,0,.7.3.2.4.2.7h0c0,1-.5,2-1.2,3.1s-1.4,1.9-2.2,2.5v.7c0,.8.2,1.1.7,1.1s1-.3,1.5-1h.5v.3s0,.2-.2.4c-.7.8-1.5,1.2-2.3,1.2h0v-.2h.2ZM38.6,39.2c-.4,0-.8.5-1.2,1.5s-.7,2-.8,2.8c.5-.6,1.1-1.3,1.5-2.1s.7-1.4.7-2,0-.3-.2-.3h0Z"/>
    <path d="M43.8,44.4c0-2.2.5-4,1.5-5.2.9-1.2,2.1-1.9,3.6-1.9s2.1.3,2.8.9c.7.6,1.1,1.3,1.1,2s-.2,1.1-.5,1.5c-.3.3-.6.5-.9.7s-.8.2-1.3.3c.4,1.6,1,3,1.7,4.2.7,1.1,1.3,1.7,1.9,1.8h.2c.4,0,.8-.2,1.2-.6h.2s.2,0,.3.2c0,0,.2.2.2.3h0c-.2.4-.5.7-.8,1s-.8.4-1.3.4-1.3-.4-2-1.1-1.2-1.7-1.6-2.7c-.4-1.1-.7-2.1-.9-3.2h-.7v2.9c0,.4,0,.7-.2.9s0,.5-.2.7-.2.5-.3.6c0,.2-.2.3-.4.5-.3.3-.6.4-1.1.4s-1.2-.4-1.5-1.1c-.4-.7-.6-1.8-.6-3v-.5s-.4,0-.4,0ZM48.5,42c1,0,1.7,0,2.1-.3.5-.2.8-.7.8-1.5s-.2-.9-.6-1.3c-.4-.3-1-.5-1.9-.5s-2.2.5-2.9,1.6-1,2.5-1,4.2,0,2,.3,2.7c.2.7.4,1,.8,1h0c.2,0,.4-.2.5-.7,0-.2.2-.6.3-1.1s.3-1.6.5-3.3c-.5,0-.8-.3-.8-.6s0-.4.3-.4h.6c.3-1.2.7-1.9,1.3-1.9s.5,0,.5.4,0,.3-.3.6-.3.6-.4.9h0v.2h0Z"/>
    <path d="M54.1,45.4c0-.7.2-1.3.7-1.9.5-.6,1-.9,1.7-.9s.7,0,1,.3.4.5.4.9-.2.9-.6,1.2-1,.6-1.9.7c0,.4.5.6,1,.6s1.5-.3,2.1-1h.4v.5c-.2.3-.6.6-1.1.9s-1,.4-1.6.4-1-.2-1.4-.5-.6-.8-.6-1.4h0v.2h-.1ZM56.5,43.5c-.3,0-.6.2-.9.5-.3.3-.4.7-.4,1.1,1.2-.4,1.8-.8,1.8-1.3s-.2-.4-.5-.4h0Z"/>
    <path d="M59,45.3c0-.7.2-1.3.7-1.9.5-.6,1-.9,1.7-.9s.7,0,1,.3.4.5.4.8,0,.6-.3.8c-.2.2-.3.4-.5.4h-.3v-1.2h-.3c-.3,0-.6.2-.9.5-.3.3-.4.8-.4,1.4s0,.6.3.8.5.3.8.3c.7,0,1.4-.4,2.1-1.3h.4v.4c-.3.4-.6.8-1.1,1.1s-1,.5-1.7.5-1.1-.3-1.5-.8c-.2-.3-.3-.7-.3-1.2,0,0,0,0-.1,0Z"/>
    <path d="M63.9,45.8c0-.4,0-.9.2-1.5s.3-1,.4-1.2c.2-.3.3-.4.4-.5s.2,0,.4,0h.3s.2,0,.2.2,0,.2-.2.4c0,.2-.2.5-.4,1.1s-.2,1-.2,1.3.2.7.5.7.9-.3,1.4-1h.6v.3s0,.2-.2.4c-.7.8-1.4,1.2-2.2,1.2s-.8,0-1-.4-.4-.6-.4-1h.2,0ZM65.9,41.7c-.5,0-.8-.2-.8-.7s0-.4.2-.5.4-.2.6-.2c.5,0,.7.2.7.6s0,.4-.2.6-.3.2-.6.2h.1Z"/>
    <path d="M66.8,49.9c0-.3.2-1,.4-2.1.2-1.1.3-1.7.4-1.8,0,0,0-.4.2-.8s.3-.8.5-1.2c.2-.3.3-.6.5-.8s.4-.3.7-.5c.3,0,.6-.2,1-.2s.7,0,.9.4.3.6.3,1.1,0,.2,0,.4c.5,0,1.1-.5,1.8-1.2h.4v.3s0,.2-.2.3c-.2.3-.6.6-1.1.9s-.9.5-1.3.6c-.2.5-.5,1-.9,1.3s-.8.5-1.3.5-.6,0-.8-.4c0,0,0,.6-.3,1.5s-.3,1.5-.3,1.6-.2.2-.3.4-.3.2-.5.2h0v-.6h0ZM69.3,46.3c.2,0,.5,0,.7-.3s.4-.4.5-.7c-.2,0-.3-.3-.3-.6v-.4s.2-.2.3-.4h0c0-.3-.3-.4-.5-.4s-.4,0-.6.2c-.2,0-.3.3-.4.5s-.2.4-.3.6c0,.2,0,.4-.2.7v.5c.2.2.5.3.7.3h.2,0Z"/>
    <path d="M73.1,45.4c0-.7.2-1.3.7-1.9.4-.6,1-.9,1.6-.9s.7,0,.9.3.4.5.4.9-.2.9-.6,1.2-1.1.6-1.9.7c0,.4.5.6,1,.6s1.4-.3,2.1-1h.4v.5c-.2.3-.6.6-1.1.9s-1,.4-1.6.4-1-.2-1.4-.5-.6-.8-.6-1.4h0v.2h0ZM75.4,43.5c-.3,0-.6.2-.9.5s-.4.7-.4,1.1c1.2-.4,1.8-.8,1.8-1.3s-.2-.4-.5-.4h0Z"/>
    <path d="M80.1,47.2c-.6,0-1.1,0-1.5-.3s-.7-.5-.9-.9c.4-.7,1-1.8,1.6-3.2.2-.3.4-.4.6-.4h.4s.2.2.2.3v.6s0,.3.3.5.4.5.6.8.3.6.3.8,0,.4-.2.6c.4,0,.9-.5,1.4-1.1h.2s.2,0,.3.2c0,0,.2.2.2.3v.2c-.3.4-.7.8-1.2,1-.5.3-1.2.4-2,.4h-.3v.2ZM79.8,46.5h0c.5,0,.7-.2.7-.6s-.2-1-.7-1.6l-.9,1.9c.3.2.6.4.8.4h0Z"/>
    <path d="M85.4,46.3c0,.5-.2.9-.5,1.2-.4.4-.7.6-1.1.7h0c0,0-.2,0-.2-.2v-.2s0-.2.2-.3c.3-.5.5-1,.6-1.5,0-.3.2-.5.6-.5s.5.2.5.7h0Z"/>
    <path d="M96.7,41.3c0-1.3.3-2.3.9-2.9.7-.7,1.6-1.1,2.6-1.1s1.4.2,1.9.7.7,1,.7,1.6-.4,1.4-1.2,2c-.8.5-1.9.8-3.4.8h-.4v.6c0,1.7-.3,3.1-.9,4.1.2.2.7.4,1.4.8.2,0,.4.2.6.4s.5.3.7.4.4.2.8.3c.3,0,.7.2,1.1.2.6,0,1.1-.2,1.5-.7,0,0,.2-.2.3-.2h.3v.5c-.5.9-1.2,1.3-2.1,1.3s-.9,0-1.4-.3c-.3,0-.5-.2-.7-.3s-.5-.2-.8-.4-.6-.3-.7-.4-.4-.2-.8-.5-.6-.4-.7-.4c-.7.6-1.5.9-2.6.9s-1.1-.2-1.4-.5-.5-.7-.5-1.1,0-.8.4-1.1.7-.4,1.1-.4,1.6.3,2.6.9c.2-.5.4-1.1.5-1.7v-2.5c-.6,0-1.2-.2-1.9-.3-.1,0-.2,0-.2-.3v-.4c0,0,.2-.2.3-.2l1.7.3h.3,0ZM93.8,47.8c.7,0,1.2-.2,1.7-.5-.8-.5-1.5-.7-2-.7h0c-.2,0-.3,0-.4.2v.4c0,.2,0,.3.2.5,0,0,.3.2.6.2h0ZM100.3,38.3h-.8c-.5.2-.9.5-1.2.9-.2.4-.4,1.1-.4,2.1h.3c1.2,0,2-.2,2.6-.6s.9-.8.9-1.3,0-.6-.4-.8-.6-.3-1-.3h0Z"/>
    <path d="M102.5,47.2c-.5,0-.8-.2-1.2-.5s-.4-.8-.4-1.3c0-.8.2-1.4.8-2,.5-.6,1.1-.9,1.8-.9s.7,0,1,.4.4.6.4,1.1v.5c.6,0,1.2-.5,1.8-1.2h.4c.2,0,0,.2,0,.3v.2c-.6.8-1.4,1.3-2.3,1.5-.3,1.2-1,1.9-2.1,1.9h-.2ZM102.7,46.4c.2,0,.5,0,.7-.4.2-.3.3-.5.4-.8-.3-.2-.5-.3-.5-.6s0-.5.4-.7v-.3h-.2c-.4,0-.7.2-.9.6s-.4.8-.4,1.3.2.9.7.9h-.2Z"/>
    <path d="M106.3,45.3c0-.7.2-1.3.7-1.9.4-.6,1-.9,1.7-.9s.7,0,.9.3.4.5.4.8,0,.6-.3.8c-.2.2-.3.4-.5.4h-.3v-1.2h-.3c-.3,0-.6.2-.9.5s-.4.8-.4,1.4,0,.6.3.8.4.3.8.3c.7,0,1.4-.4,2.1-1.3h.4v.4c-.3.4-.6.8-1.1,1.1s-1,.5-1.7.5-1.1-.3-1.5-.8c-.2-.3-.3-.7-.3-1.2h0Z"/>
    <path d="M110.9,45.7c0-.8.3-1.6.9-2.2s1.2-1,1.9-1,.6,0,.6.3h.3c.3,0,.4,0,.4.4h0l-.4,2.5v.2c0,.2,0,.3.2.3.3,0,.8-.3,1.3-.9h.2c.1,0,.2,0,.2.2v.6c-.2.3-.5.6-.8.8s-.7.4-1,.4-.6,0-.7-.2-.3-.4-.3-.7h0c-.2.3-.4.6-.6.7-.3.2-.6.2-1,.2s-.7,0-.9-.4c-.2-.3-.3-.7-.3-1.1h0ZM112.5,46.3c.2,0,.5,0,.7-.4s.4-.6.5-.9l.4-1.6c-.5,0-1,.3-1.5.8-.4.5-.6,1-.6,1.5s.2.7.5.7h0Z"/>
    <path d="M118.6,47.2c-.5,0-.8-.2-1.1-.6s-.4-.9-.4-1.5,0-.3,0-.5c0-1.3.5-2.8,1.1-4.2.3-.7.7-1.3,1.1-1.7.4-.5.9-.7,1.4-.7s.5,0,.7.3.2.4.2.7h0c0,1-.5,2-1.2,3.1s-1.4,1.9-2.2,2.5v.7c0,.8.2,1.1.7,1.1s1-.3,1.6-1h.5v.3s0,.2-.2.4c-.7.8-1.5,1.2-2.3,1.2h0v-.2h.1ZM120.3,39.2c-.4,0-.8.5-1.2,1.5-.4,1-.7,2-.8,2.8.6-.6,1.1-1.3,1.5-2.1s.7-1.4.7-2,0-.3-.2-.3h0Z"/>
    <path d="M132.3,37.5c2,0,3,.2,3,.7s0,.3-.1.4c0,0-.2.2-.3.2h0c-1.7-.2-2.7-.2-3-.2h-.9c-.3,1.5-.6,2.9-.8,4h1.5c.2,0,.3.2.3.5s-.1.5-.3.5h-1.7v.3c-.4,1.5-.8,2.4-1.1,2.9-.5.9-1.3,1.3-2.3,1.3s-.7,0-1.1-.2-.6-.3-.8-.6v-.2c0-.2,0-.3.2-.4s.3-.2.4-.2h.3l.4.3h.6c.6,0,1-.3,1.4-.8.3-.5.6-1.3.9-2.5h-.2c-.4,0-.6,0-.6-.4s.3-.4,1-.5c0-.3.2-.8.4-1.4.2-.6.3-1.2.4-1.6.1-.5.2-.8.2-1-1.2,0-2.1.5-2.7,1-.7.6-1,1.2-1,2s.2,1.1.6,1.6h0c0,.2-.2.3-.6.3s-.6,0-.8-.3c-.3-.5-.5-1-.5-1.6,0-1,.5-2,1.6-2.8.5-.4,1.2-.7,2-1,.8-.3,1.8-.4,2.9-.4h1-.3,0Z"/>
    <path d="M134.7,47.2c-.5,0-.8-.2-1.1-.6s-.4-.9-.4-1.5,0-.3,0-.5c.1-1.3.5-2.8,1.1-4.2s.6-1.3,1.1-1.7c.4-.5.9-.7,1.4-.7s.5,0,.7.3.2.4.2.7h0c0,1-.5,2-1.1,3.1s-1.4,1.9-2.2,2.5v.7c0,.8.2,1.1.7,1.1s1-.3,1.6-1h.5s.1.2.1.3,0,.2-.2.4c-.7.8-1.5,1.2-2.3,1.2h0v-.2h-.1ZM136.4,39.2c-.4,0-.8.5-1.2,1.5s-.7,2-.8,2.8c.6-.6,1.1-1.3,1.5-2.1s.7-1.4.7-2,0-.3-.2-.3h0Z"/>
    <path d="M137.1,45.7c0-.8.3-1.6.9-2.2.6-.7,1.2-1,1.9-1s.6,0,.6.3h.3c.3,0,.4,0,.4.4h0l-.4,2.5v.2c0,.2,0,.3.2.3.4,0,.8-.3,1.3-.9h.2s.2,0,.2.2.1.3.1.4v.2c-.2.3-.5.6-.8.8-.4.2-.7.4-1,.4s-.6,0-.7-.2-.3-.4-.3-.7h0c-.2.3-.4.6-.6.7-.3.2-.6.2-1,.2s-.7,0-.9-.4c-.2-.3-.3-.7-.3-1.1h0ZM138.7,46.3c.2,0,.5,0,.7-.4s.4-.6.5-.9l.4-1.6c-.5,0-1,.3-1.5.8-.4.5-.6,1-.6,1.5s.2.7.5.7h0Z"/>
    <path d="M144.3,44.6v1c0,.3,0,.4.1.5v.2h.2c.1-.2.3-.4.5-.7s.4-.6.5-.9v-.2c0-.6.1-1.1.3-1.4s.5-.5.7-.5h.3s.1.2.1.3-.1.6-.4,1.2c.7,0,1.3-.5,1.8-1.1h.2s.2,0,.3.2c0,0,.1.2.1.3v.2c-.2.4-.6.7-1.1,1s-1.1.5-1.6.5h0c-.5,1-1.2,1.7-1.9,2.1h-.3c-.3,0-.6-.2-.8-.7-.2-.4-.4-1-.4-1.7s.1-1.3.3-2.1c0-.2.2-.4.5-.4h.4c.1,0,.2.2.2.3-.1.7-.2,1.2-.2,1.6h0l.2.2h0Z"/>
    <path d="M149.8,47.2c-.5,0-.9-.2-1.1-.5s-.4-.8-.4-1.3c0-.8.2-1.4.8-2,.5-.6,1.1-.9,1.8-.9s.7,0,1,.4.4.6.4,1.1v.5c.6,0,1.2-.5,1.8-1.2h.3s.1.2.1.3v.2c-.6.8-1.4,1.3-2.3,1.5-.3,1.2-1,1.9-2.1,1.9h-.3ZM150,46.4c.2,0,.5,0,.7-.4.2-.3.3-.5.4-.8-.4-.2-.5-.3-.5-.6s.1-.5.4-.7v-.3h-.2c-.4,0-.7.2-.9.6s-.4.8-.4,1.3.2.9.7.9h-.2Z"/>
    <path d="M154.7,45.4c.2-.5.5-1.1.9-1.8s.8-1,1.1-1,.6.2.6.5,0,.4-.1.7-.1.4-.1.5.1.2.3.2.5,0,1-.4h.1s.1,0,.2.2c0,0,0,.2.1.3v.2c-.6.5-1.1.8-1.6.8s-.9-.3-.9-.8,0-.3.2-.9l-.2.3c-.4.7-.9,1.7-1.3,2.8-.1.2-.3.4-.6.4s-.6-.3-.6-.9h0c0-1.1.1-2.1.4-3.1.1-.4.4-.6.7-.6h.3c.1,0,.1.2.1.3l-.6,2.5h0v-.3h0Z"/>
    <path d="M161,47.2c-.6,0-1.1,0-1.5-.3s-.7-.5-.9-.9c.4-.7,1-1.8,1.6-3.2.1-.3.4-.4.6-.4h.4s.1.2.1.3v.6s.1.3.3.5.4.5.6.8.3.6.3.8,0,.4-.1.6c.4,0,.9-.5,1.4-1.1h.2s.2,0,.3.2c.1,0,.1.2.1.3v.2c-.3.4-.7.8-1.2,1-.5.3-1.2.4-2,.4h-.2v.2h0ZM160.7,46.5h0c.5,0,.7-.2.7-.6s-.2-1-.7-1.6l-.9,1.9c.3.2.6.4.8.4h0Z"/>
  </g>
  <g id="hat">
    <path d="M85,6c.3-.3.5-.7.5-1.1v-1.3c2-1.5,5-.2,4.7,2.5-.2,1.8-2.7,3.1-4.3,3.2-.7,0-2.1-.3-2.7-.2l-1.7.4,1.1.2c1.2.3,2.4.7,3.6.5l.5,2.2c-2.9.1-5.8.8-8.4,2l-.6-2.7c1.1-1.3,2.6-2.8,4.2-3.3.6-.2,1.1-.1,1.7-.2-3.8-2.4-6.8,4.9-10.1,4.1-1.7-.4-2.4-2.9-1.4-4.2s3-1.2,4.6-.9c-1.2-4.1,4.4-6.9,7.3-4,.2.2.8,1,.9,1.2l.4,1.7h-.3,0Z" fill="#fff"/>
    <path d="M87.8,13.3c0,.1-2.3,0-2.7.1-1.5.1-2.9.4-4.3.9-1.1.4-2.1,1-3.2,1.4l-.2-.2-.7-3.1c-2.2,1.5-5.3,1.1-6.1-1.8-.8-3.1,2.1-5.1,4.9-4.4-.2-4.9,6.3-6.9,9.4-3.4,2.8-1.9,6.6,0,6.1,3.5-.2,1.5-1.5,2.6-2.8,3.2-.4.2-.9.3-1.2.6l.8,3.2h0ZM85,6l-.4-1.7c0-.2-.7-1-.9-1.2-2.9-2.9-8.5,0-7.3,4-1.5-.3-3.5-.6-4.6.9-1.1,1.5-.3,3.9,1.4,4.2,3.4.8,6.4-6.6,10.1-4.1-.6.1-1.1,0-1.7.2-1.6.5-3.2,2-4.2,3.3l.6,2.7c2.7-1.2,5.5-1.9,8.4-2l-.5-2.2c-1.2.2-2.4-.1-3.6-.5l-1.1-.2,1.7-.4c.5-.1,2,.2,2.7.2,1.6-.1,4.1-1.5,4.3-3.2.3-2.7-2.7-4-4.7-2.5,0,.5.2.8,0,1.3,0,.4-.2.8-.5,1.1h.3,0Z" fill="#155a00"/>
  </g>
  <g id="globe" fill="#155a00">
    <path d="M29.1,17.1c-1.1,0-2.2.4-3,1.1-.2.1-.6.5-.5.7h.2c.1-.2.4-.3.6-.5.5-.2,1-.3,1.3-.5l1.4-.9h0Z"/>
    <path d="M36.3,24.9v-1.8c0-.5-.4-1.4-.5-1.7-.7-1.8-2.4-3.4-4.2-3.9l.3.2c.1.2-.2.1-.2.2l.2.3s-.9.2-1,.1c-.2,0-.7-.3-1-.3s-.6.2-.6.2c0,0,0,.2-.2.5-.2.2-.5.2-.5.4,0,.5.6,0,.5.5l-.2-.2v.5c-.6-.1-.8.6-1.3.5.6,1-.5.5-.6.6v.7c.1.2.5,0,.7,0,0,0,.3-.5.5-.5s.4,0,.5-.2c0,.3,1.1.8.4.8,0,.5.6-.2.5-.3-.2,0-.5-.2-.5-.5.1.2.4.2.5.4.2.3.1.6.5.7l.2-.2-.2-.2c.3-.3.5.2.4.5h.9c0,.9-.9.6-1.5.3l-.3.2c-.4-.1-.9-.2-.9-.8h0c-.5-.1-.9,0-1.3.1h-.3c-.2,0-.5.7-.5.8-.1.2-.8.6-.8,1s.1.2.1.3c0,.2-.1.4,0,.7s.6.6.8.9h.8c.2,0,.5-.2.6-.1,0,0,.2.4.6.2v.6c0,.1.5.6.5,1s-.1.3-.1.4c0,.2.3,1.4.4,1.6.1.3.6,0,.8,0s.8-.6.8-.7v-.4c0-.1.5-.2.6-.5v-.8c0-.6,1.3-1,1.4-1.8-.3-.1-.5.2-.7,0l-.6-.7c0-.2,0-.4-.1-.5-.1-.3-.3-.5-.4-.9.2-.2.6.8.7.9.2.3.5.5.4.9.5,0,1.6-.6,1.6-1.1s-1.2-.2-1-1c.2,0,.2.2.4.3l.5.2h.6c.2,0,.2.4.3.5h.2s.2,1.3.2,1.5c.3-.2.2-.6.3-.8,0-.1.4-.7.4-.8.2-.1,0,.6,0,.6,0,0,.2,0,.2.1v.6l.2-.2h0Z"/>
    <path d="M26.3,17.8c-.2,0-1.3.7-1.2.9.4-.2.9-.5,1.2-.9Z"/>
    <path d="M23.8,20c.3,0,.5,0,.7-.3l.4-1c-1,.9-1.8,1.9-2.2,3.1l.6-1c.5,0,.2-.5.6-.6l-.2-.2h.1Z"/>
    <path d="M27.8,20.2h.5c0-.1-.3-.9-.3-.9-.4.1-.3.4,0,.5-.2,0-.2.2-.2.4h0Z"/>
    <path d="M23.9,26.3c-.3-.2-.9-1.2-1.2-1.5s-.2-.2-.3-.2c-.2.2.2,1.6.3,2,.3.9,1.4,2.4,2.1,3,0,0,.6.5.6.4-.2-.3-.8-1.2-.8-1.6,0,0,.2,0,.2-.2,0-.3-.2-.6-.2-.9s.2-.3.1-.6l-.4-.4c-.1,0-.4,0-.4,0Z"/>
    <path d="M32,27.9c0,.2-.6.8-.2.9.2,0,.9-1,.8-1.3l-.5.4h0Z"/>
  </g>
</svg>
